<svg width="395" height="406" viewBox="0 0 395 406" fill="none" xmlns="http://www.w3.org/2000/svg">
<path d="M147.787 10.1927L59.479 46.4464L95.7327 134.754L184.041 98.5006L147.787 10.1927Z" stroke="#446BD8" stroke-miterlimit="10"/>
<path d="M138.629 18.734L56.4951 58.6514L96.4125 140.785L178.546 100.868L138.629 18.734Z" stroke="#4A65D9" stroke-miterlimit="10"/>
<path d="M129.575 27.4663L53.615 71.0394L97.188 146.999L173.148 103.426L129.575 27.4663Z" stroke="#4F5FDA" stroke-miterlimit="10"/>
<path d="M120.316 35.8212L50.5435 83.0607L97.7829 152.833L167.555 105.594L120.316 35.8212Z" stroke="#5559DA" stroke-miterlimit="10"/>
<path d="M111.045 44.1661L47.4539 95.0761L98.3639 158.668L161.956 107.758L111.045 44.1661Z" stroke="#5B53DB" stroke-miterlimit="10"/>
<path d="M102.087 52.9104L44.6685 107.475L99.2331 164.894L156.652 110.329L102.087 52.9104Z" stroke="#604DDC" stroke-miterlimit="10"/>
<path d="M92.7263 61.2133L41.4958 119.446L99.7281 170.676L150.959 112.444L92.7263 61.2133Z" stroke="#6647DD" stroke-miterlimit="10"/>
<path d="M83.5893 69.7129L38.5344 131.612L100.433 176.667L145.488 114.768L83.5893 69.7129Z" stroke="#6C41DE" stroke-miterlimit="10"/>
<path d="M74.5728 78.3101L35.6936 143.868L101.252 182.748L140.131 117.189L74.5728 78.3101Z" stroke="#723BDF" stroke-miterlimit="10"/>
<path d="M65.2122 86.6802L32.5178 155.908L101.746 188.603L134.44 119.375L65.2122 86.6802Z" stroke="#7734DF" stroke-miterlimit="10"/>
<path d="M56.0693 95.1819L29.5549 168.069L102.442 194.584L128.956 121.696L56.0693 95.1819Z" stroke="#7D2EE0" stroke-miterlimit="10"/>
<path d="M47.0405 103.707L26.6997 180.261L103.253 200.602L123.594 124.048L47.0405 103.707Z" stroke="#8328E1" stroke-miterlimit="10"/>
<path d="M37.8012 112.159L23.6418 192.379L103.862 206.538L118.021 126.318L37.8012 112.159Z" stroke="#8822E2" stroke-miterlimit="10"/>
<path d="M28.4659 120.604L20.4924 204.486L104.374 212.459L112.348 128.578L28.4659 120.604Z" stroke="#8E1CE3" stroke-miterlimit="10"/>
<path d="M19.5363 129.108L17.7329 216.66L105.284 218.463L107.088 130.912L19.5363 129.108Z" stroke="#9416E3" stroke-miterlimit="10"/>
<path d="M101.387 133.25L10.1726 137.631L14.554 228.846L105.769 224.465L101.387 133.25Z" stroke="#9910E4" stroke-miterlimit="10"/>
<path d="M95.8743 135.613L1 146.171L11.558 241.046L106.432 230.488L95.8743 135.613Z" stroke="#9F0AE5" stroke-miterlimit="10"/>
<path d="M253.809 1.95736L194.945 78.3111L271.299 137.175L330.163 60.8214L253.809 1.95736Z" stroke="#D6D645" stroke-miterlimit="10"/>
<path d="M241.741 5.50716L190.127 81.9423L266.562 133.557L318.176 57.1215L241.741 5.50716Z" stroke="#D3C94F" stroke-miterlimit="10"/>
<path d="M229.502 8.94746L185.149 85.4614L261.663 129.815L306.016 53.3011L229.502 8.94746Z" stroke="#CFBD59" stroke-miterlimit="10"/>
<path d="M217.221 12.3981L180.129 88.9892L256.72 126.081L293.812 49.4897L217.221 12.3981Z" stroke="#CCB063" stroke-miterlimit="10"/>
<path d="M205.326 16.0275L175.481 92.6934L252.147 122.538L281.991 45.8721L205.326 16.0275Z" stroke="#C8A36D" stroke-miterlimit="10"/>
<path d="M193.13 19.5197L170.542 96.2648L247.287 118.852L269.875 42.107L193.13 19.5197Z" stroke="#C59677" stroke-miterlimit="10"/>
<path d="M181.155 23.068L165.818 99.8918L242.642 115.229L257.979 38.405L181.155 23.068Z" stroke="#C18A81" stroke-miterlimit="10"/>
<path d="M168.649 26.5353L160.58 103.433L237.478 111.502L245.546 34.604L168.649 26.5353Z" stroke="#BE7D8B" stroke-miterlimit="10"/>
<path d="M156.724 30.0674L155.904 107.043L232.88 107.863L233.699 30.8869L156.724 30.0674Z" stroke="#BB7095" stroke-miterlimit="10"/>
<path d="M221.595 26.9691L144.544 33.4122L150.987 110.463L228.038 104.02L221.595 26.9691Z" stroke="#B7639F" stroke-miterlimit="10"/>
<path d="M209.54 23.2794L132.407 36.9773L146.105 114.11L223.238 100.413L209.54 23.2794Z" stroke="#B457A9" stroke-miterlimit="10"/>
<path d="M197.501 19.7015L120.293 40.6497L141.241 117.858L218.45 96.9102L197.501 19.7015Z" stroke="#B04AB3" stroke-miterlimit="10"/>
<path d="M185.438 15.9117L108.154 44.1171L136.359 121.401L213.643 93.1956L185.438 15.9117Z" stroke="#AD3DBD" stroke-miterlimit="10"/>
<path d="M173.306 12.0241L95.9487 47.4902L131.415 124.848L208.772 89.3816L173.306 12.0241Z" stroke="#A930C7" stroke-miterlimit="10"/>
<path d="M161.361 8.52571L83.9199 51.2401L126.634 128.681L204.075 85.9667L161.361 8.52571Z" stroke="#A624D1" stroke-miterlimit="10"/>
<path d="M149.239 4.67424L71.7222 54.6495L121.697 132.166L199.214 82.191L149.239 4.67424Z" stroke="#A217DB" stroke-miterlimit="10"/>
<path d="M137.213 0.999998L59.6228 58.225L116.848 135.815L194.438 78.5898L137.213 0.999998Z" stroke="#9F0AE5" stroke-miterlimit="10"/>
<path d="M300.766 136.897L281.326 230.356L374.786 249.796L394.225 156.336L300.766 136.897Z" stroke="#446BD8" stroke-miterlimit="10"/>
<path d="M295.513 134.12L282.567 224.517L372.964 237.463L385.91 147.066L295.513 134.12Z" stroke="#4A65D9" stroke-miterlimit="10"/>
<path d="M290.064 131.312L283.62 218.644L370.953 225.088L377.397 137.756L290.064 131.312Z" stroke="#4F5FDA" stroke-miterlimit="10"/>
<path d="M369.132 128.51H284.872V212.77H369.132V128.51Z" stroke="#5559DA" stroke-miterlimit="10"/>
<path d="M360.738 119.199L279.542 125.746L286.089 206.943L367.285 200.396L360.738 119.199Z" stroke="#5B53DB" stroke-miterlimit="10"/>
<path d="M352.345 109.842L274.217 122.888L287.263 201.016L365.391 187.97L352.345 109.842Z" stroke="#604DDC" stroke-miterlimit="10"/>
<path d="M343.986 100.718L268.927 120.256L288.464 195.315L363.523 175.777L343.986 100.718Z" stroke="#6647DD" stroke-miterlimit="10"/>
<path d="M335.636 91.4768L263.639 117.511L289.673 189.509L361.67 163.474L335.636 91.4768Z" stroke="#6C41DE" stroke-miterlimit="10"/>
<path d="M327.187 81.9748L258.261 114.512L290.798 183.438L359.724 150.901L327.187 81.9748Z" stroke="#723BDF" stroke-miterlimit="10"/>
<path d="M318.897 72.8758L253.032 111.906L292.062 177.77L357.927 138.74L318.897 72.8758Z" stroke="#7734DF" stroke-miterlimit="10"/>
<path d="M310.558 63.6258L247.763 109.149L293.286 171.944L356.081 126.421L310.558 63.6258Z" stroke="#7D2EE0" stroke-miterlimit="10"/>
<path d="M302.018 54.1142L242.292 106.143L294.321 165.869L354.047 113.84L302.018 54.1142Z" stroke="#8328E1" stroke-miterlimit="10"/>
<path d="M293.592 44.7846L236.933 103.313L295.462 159.971L352.12 101.443L293.592 44.7846Z" stroke="#8822E2" stroke-miterlimit="10"/>
<path d="M285.404 35.6801L231.808 100.697L296.825 154.293L350.421 89.2761L285.404 35.6801Z" stroke="#8E1CE3" stroke-miterlimit="10"/>
<path d="M276.897 26.2876L226.368 97.8098L297.891 148.338L348.419 76.8157L276.897 26.2876Z" stroke="#9416E3" stroke-miterlimit="10"/>
<path d="M268.397 16.9386L220.941 94.9596L298.962 142.416L346.418 64.3947L268.397 16.9386Z" stroke="#9910E4" stroke-miterlimit="10"/>
<path d="M260.063 7.69886L215.675 92.2108L300.187 136.599L344.575 52.0874L260.063 7.69886Z" stroke="#9F0AE5" stroke-miterlimit="10"/>
<path d="M290.668 200.759L195.076 213.293L207.61 308.885L303.202 296.351L290.668 200.759Z" stroke="#D6D645" stroke-miterlimit="10"/>
<path d="M291.548 194.391L201.037 212.116L218.762 302.627L309.273 284.902L291.548 194.391Z" stroke="#D3C94F" stroke-miterlimit="10"/>
<path d="M292.479 188.7L207.052 211.59L229.942 297.017L315.369 274.127L292.479 188.7Z" stroke="#CFBD59" stroke-miterlimit="10"/>
<path d="M293.34 182.55L213.002 210.62L241.073 290.957L321.41 262.887L293.34 182.55Z" stroke="#CCB063" stroke-miterlimit="10"/>
<path d="M294.177 176.38L218.927 209.632L252.179 284.883L327.43 251.631L294.177 176.38Z" stroke="#C8A36D" stroke-miterlimit="10"/>
<path d="M295.209 170.739L225.037 209.157L263.455 279.329L333.627 240.911L295.209 170.739Z" stroke="#C59677" stroke-miterlimit="10"/>
<path d="M295.985 164.491L230.9 208.094L274.503 273.178L339.587 229.575L295.985 164.491Z" stroke="#C18A81" stroke-miterlimit="10"/>
<path d="M296.89 158.554L236.895 207.329L285.669 267.324L345.664 218.55L296.89 158.554Z" stroke="#BE7D8B" stroke-miterlimit="10"/>
<path d="M297.91 152.718L242.995 206.664L296.941 261.58L351.856 207.633L297.91 152.718Z" stroke="#BB7095" stroke-miterlimit="10"/>
<path d="M298.655 146.55L248.831 205.677L307.957 255.501L357.781 196.374L298.655 146.55Z" stroke="#B7639F" stroke-miterlimit="10"/>
<path d="M299.595 140.6L254.851 204.906L319.156 249.649L363.9 185.344L299.595 140.6Z" stroke="#B457A9" stroke-miterlimit="10"/>
<path d="M300.619 134.692L260.958 204.169L330.435 243.83L370.096 174.353L300.619 134.692Z" stroke="#B04AB3" stroke-miterlimit="10"/>
<path d="M301.465 128.661L266.892 203.314L341.545 237.887L376.118 163.234L301.465 128.661Z" stroke="#AD3DBD" stroke-miterlimit="10"/>
<path d="M302.199 122.593L272.717 202.423L352.546 231.905L382.029 152.075L302.199 122.593Z" stroke="#A930C7" stroke-miterlimit="10"/>
<path d="M303.352 116.699L278.945 201.704L363.951 226.111L388.358 141.106L303.352 116.699Z" stroke="#A624D1" stroke-miterlimit="10"/>
<path d="M304.109 110.644L284.791 200.829L374.976 220.146L394.293 129.962L304.109 110.644Z" stroke="#A217DB" stroke-miterlimit="10"/>
<path d="M9.36781 182.076L3.49023 277.355L98.7691 283.233L104.647 187.954L9.36781 182.076Z" stroke="#446BD8" stroke-miterlimit="10"/>
<path d="M104.142 193.721L12.8218 193.849L12.9493 285.169L104.269 285.041L104.142 193.721Z" stroke="#4A65D9" stroke-miterlimit="10"/>
<path d="M103.793 199.97L16.4358 206.079L22.5444 293.435L109.901 287.327L103.793 199.97Z" stroke="#4F5FDA" stroke-miterlimit="10"/>
<path d="M103.466 205.779L20.0798 217.884L32.1851 301.27L115.571 289.165L103.466 205.779Z" stroke="#5559DA" stroke-miterlimit="10"/>
<path d="M103.108 211.593L23.6848 229.696L41.7876 309.119L121.211 291.016L103.108 211.593Z" stroke="#5B53DB" stroke-miterlimit="10"/>
<path d="M102.827 217.892L27.3669 241.974L51.4494 317.434L126.91 293.352L102.827 217.892Z" stroke="#604DDC" stroke-miterlimit="10"/>
<path d="M102.429 223.615L30.9402 253.695L61.0208 325.185L132.51 295.104L102.429 223.615Z" stroke="#6647DD" stroke-miterlimit="10"/>
<path d="M102.11 229.632L34.5806 265.704L70.653 333.234L138.182 297.161L102.11 229.632Z" stroke="#6C41DE" stroke-miterlimit="10"/>
<path d="M101.853 235.767L38.2866 277.825L80.3442 341.391L143.91 299.334L101.853 235.767Z" stroke="#723BDF" stroke-miterlimit="10"/>
<path d="M101.426 241.554L41.8269 289.61L89.883 349.209L149.482 301.153L101.426 241.554Z" stroke="#7734DF" stroke-miterlimit="10"/>
<path d="M101.109 247.568L45.4771 301.611L99.5201 357.243L155.152 303.2L101.109 247.568Z" stroke="#7D2EE0" stroke-miterlimit="10"/>
<path d="M100.887 253.636L49.2129 313.67L109.247 365.344L160.92 305.31L100.887 253.636Z" stroke="#8328E1" stroke-miterlimit="10"/>
<path d="M100.508 259.551L52.8 325.579L118.828 373.287L166.536 307.259L100.508 259.551Z" stroke="#8822E2" stroke-miterlimit="10"/>
<path d="M100.049 265.419L56.3118 337.439L128.331 381.176L172.068 309.156L100.049 265.419Z" stroke="#8E1CE3" stroke-miterlimit="10"/>
<path d="M99.927 271.534L60.1438 349.546L138.155 389.329L177.939 311.318L99.927 271.534Z" stroke="#9416E3" stroke-miterlimit="10"/>
<path d="M99.4889 277.42L63.6753 361.424L147.68 397.238L183.493 313.233L99.4889 277.42Z" stroke="#9910E4" stroke-miterlimit="10"/>
<path d="M99.2072 283.418L67.3577 373.408L157.348 405.258L189.197 315.268L99.2072 283.418Z" stroke="#9F0AE5" stroke-miterlimit="10"/>
</svg>
