<svg width="401" height="412" viewBox="0 0 401 412" fill="none" xmlns="http://www.w3.org/2000/svg">
<path d="M259.06 5.89663L209.565 71.1743C207.096 74.4309 207.735 79.0727 210.991 81.5419L276.269 131.036C279.525 133.506 284.167 132.867 286.636 129.611L336.131 64.3331C338.6 61.0765 337.962 56.4348 334.705 53.9655L269.428 4.47096C266.171 2.00172 261.529 2.63999 259.06 5.89663Z" stroke="black" stroke-width="3" stroke-miterlimit="10"/>
<path d="M247.429 9.35506L204.1 74.6697C201.941 77.9235 202.829 82.311 206.083 84.4696L271.397 127.799C274.651 129.957 279.039 129.069 281.197 125.816L324.526 60.501C326.685 57.2473 325.797 52.8597 322.543 50.7012L257.229 7.37194C253.975 5.21341 249.587 6.10128 247.429 9.35506Z" stroke="black" stroke-width="3" stroke-miterlimit="10"/>
<path d="M235.892 13.1138L198.721 78.4391C196.87 81.6937 198.007 85.8332 201.261 87.685L266.587 124.855C269.841 126.707 273.981 125.57 275.832 122.316L313.003 56.9902C314.855 53.7357 313.717 49.5962 310.463 47.7443L245.138 10.574C241.883 8.72221 237.744 9.85927 235.892 13.1138Z" stroke="black" stroke-width="3" stroke-miterlimit="10"/>
<path d="M224.272 16.685L193.278 82.0161C191.732 85.2744 193.121 89.1689 196.379 90.7147L261.71 121.708C264.968 123.254 268.863 121.866 270.409 118.607L301.402 53.2763C302.948 50.0179 301.56 46.1234 298.301 44.5777L232.97 13.5842C229.712 12.0384 225.817 13.4267 224.272 16.685Z" stroke="black" stroke-width="3" stroke-miterlimit="10"/>
<path d="M212.642 20.2525L187.816 85.6062C186.579 88.864 188.216 92.5081 191.474 93.7456L256.828 118.571C260.086 119.809 263.73 118.171 264.967 114.913L289.793 49.5595C291.03 46.3017 289.393 42.6575 286.135 41.42L220.781 16.5944C217.523 15.3569 213.879 16.9947 212.642 20.2525Z" stroke="black" stroke-width="3" stroke-miterlimit="10"/>
<path d="M201.151 24.0149L182.481 89.381C181.55 92.6417 183.438 96.0399 186.699 96.9712L252.065 115.641C255.326 116.572 258.724 114.684 259.655 111.423L278.325 46.0567C279.256 42.7961 277.367 39.3978 274.107 38.4666L208.741 19.7972C205.48 18.8659 202.082 20.7542 201.151 24.0149Z" stroke="black" stroke-width="3" stroke-miterlimit="10"/>
<path d="M189.485 27.5546L176.988 92.9411C176.365 96.2013 178.503 99.3494 181.763 99.9725L247.149 112.469C250.41 113.092 253.558 110.955 254.181 107.694L266.677 42.3078C267.301 39.0476 265.163 35.8996 261.903 35.2765L196.516 22.7797C193.256 22.1566 190.108 24.2944 189.485 27.5546Z" stroke="black" stroke-width="3" stroke-miterlimit="10"/>
<path d="M177.918 31.2033L171.586 96.6075C171.27 99.8673 173.657 102.766 176.917 103.081L242.321 109.414C245.581 109.729 248.479 107.343 248.795 104.083L255.127 38.6785C255.443 35.4187 253.056 32.5203 249.796 32.2047L184.392 25.8724C181.132 25.5568 178.234 27.9435 177.918 31.2033Z" stroke="black" stroke-width="3" stroke-miterlimit="10"/>
<path d="M166.393 34.8899L166.222 100.3C166.213 103.564 168.852 106.217 172.116 106.225L237.526 106.396C240.79 106.405 243.443 103.766 243.451 100.502L243.622 35.0921C243.631 31.8281 240.992 29.1751 237.728 29.1666L172.318 28.9953C169.054 28.9868 166.401 31.6259 166.393 34.8899Z" stroke="black" stroke-width="3" stroke-miterlimit="10"/>
<path d="M225.573 26.0125L160.138 32.0136C156.876 32.3127 154.475 35.1991 154.774 38.4604L160.775 103.896C161.074 107.157 163.961 109.559 167.222 109.259L232.657 103.258C235.919 102.959 238.32 100.073 238.021 96.8115L232.02 31.3761C231.721 28.1148 228.834 25.7134 225.573 26.0125Z" stroke="black" stroke-width="3" stroke-miterlimit="10"/>
<path d="M213.44 22.9286L147.991 35.0943C144.728 35.7009 142.574 38.8381 143.181 42.1015L155.346 107.55C155.953 110.814 159.09 112.967 162.353 112.361L227.802 100.195C231.066 99.5886 233.219 96.4514 232.613 93.188L220.447 27.7391C219.84 24.4758 216.703 22.322 213.44 22.9286Z" stroke="black" stroke-width="3" stroke-miterlimit="10"/>
<path d="M201.283 19.9095L135.82 38.2363C132.554 39.1505 130.648 42.5388 131.563 45.8043L149.889 111.267C150.804 114.533 154.192 116.439 157.457 115.525L222.92 97.1978C226.186 96.2836 228.092 92.8953 227.178 89.6298L208.851 24.1668C207.937 20.9014 204.548 18.9953 201.283 19.9095Z" stroke="black" stroke-width="3" stroke-miterlimit="10"/>
<path d="M189.17 16.7934L123.691 41.2878C120.427 42.5089 118.771 46.1447 119.992 49.4087L144.486 114.887C145.707 118.151 149.343 119.807 152.607 118.586L218.086 94.0919C221.35 92.8709 223.006 89.235 221.785 85.971L197.29 20.4926C196.069 17.2286 192.434 15.5724 189.17 16.7934Z" stroke="black" stroke-width="3" stroke-miterlimit="10"/>
<path d="M177.057 13.6363L111.57 44.2988C108.304 45.828 106.896 49.7155 108.425 52.9816L139.088 118.469C140.617 121.735 144.504 123.143 147.771 121.613L213.258 90.9511C216.524 89.4218 217.932 85.5343 216.402 82.2682L185.74 16.7812C184.211 13.5151 180.323 12.1071 177.057 13.6363Z" stroke="black" stroke-width="3" stroke-miterlimit="10"/>
<path d="M164.924 10.647L99.4054 47.4748C96.1412 49.3095 94.9825 53.4431 96.8173 56.7072L133.645 122.226C135.48 125.49 139.613 126.649 142.877 124.814L208.396 87.9867C211.661 86.1519 212.819 82.0184 210.985 78.7543L174.157 13.2352C172.322 9.97107 168.189 8.81226 164.924 10.647Z" stroke="black" stroke-width="3" stroke-miterlimit="10"/>
<path d="M152.801 7.50551L87.2674 50.5036C84.0027 52.6456 83.0927 57.0286 85.2347 60.2933L128.233 125.826C130.375 129.091 134.758 130.001 138.023 127.859L203.556 84.861C206.82 82.719 207.73 78.336 205.588 75.0713L162.59 9.5382C160.448 6.27354 156.065 5.36347 152.801 7.50551Z" stroke="black" stroke-width="3" stroke-miterlimit="10"/>
<path d="M140.668 4.44244L75.1317 53.5946C71.8622 56.0467 71.1995 60.6851 73.6517 63.9546L122.804 129.49C125.256 132.76 129.894 133.423 133.164 130.97L198.7 81.8184C201.969 79.3662 202.632 74.7278 200.18 71.4583L151.028 5.92243C148.575 2.65291 143.937 1.99029 140.668 4.44244Z" stroke="black" stroke-width="3" stroke-miterlimit="10"/>
<path d="M304.534 144.477L287.432 224.592C286.578 228.589 289.127 232.52 293.124 233.374L373.239 250.476C377.235 251.329 381.167 248.78 382.02 244.784L399.123 164.669C399.976 160.672 397.427 156.74 393.43 155.887L313.315 138.785C309.319 137.932 305.387 140.48 304.534 144.477Z" stroke="black" stroke-width="3" stroke-miterlimit="10"/>
<path d="M299.7 141.401L288.182 218.93C287.609 222.792 290.275 226.388 294.137 226.962L371.666 238.48C375.528 239.053 379.124 236.387 379.698 232.525L391.216 154.996C391.79 151.134 389.124 147.538 385.261 146.964L307.732 135.446C303.87 134.872 300.274 137.538 299.7 141.401Z" stroke="black" stroke-width="3" stroke-miterlimit="10"/>
<path d="M294.781 138.271L288.858 213.197C288.563 216.93 291.35 220.195 295.083 220.49L370.009 226.413C373.742 226.708 377.007 223.922 377.302 220.189L383.225 145.263C383.52 141.53 380.733 138.264 377.001 137.969L302.074 132.046C298.342 131.751 295.076 134.538 294.781 138.271Z" stroke="black" stroke-width="3" stroke-miterlimit="10"/>
<path d="M290.032 135.279L289.691 207.588C289.674 211.195 292.584 214.132 296.19 214.149L368.499 214.49C372.106 214.507 375.043 211.597 375.06 207.991L375.401 135.681C375.418 132.075 372.508 129.138 368.902 129.121L296.593 128.78C292.986 128.763 290.049 131.673 290.032 135.279Z" stroke="black" stroke-width="3" stroke-miterlimit="10"/>
<path d="M360.663 120.105L290.951 125.359C287.476 125.621 284.871 128.651 285.133 132.126L290.387 201.838C290.648 205.313 293.678 207.918 297.153 207.656L366.865 202.402C370.34 202.14 372.945 199.111 372.683 195.636L367.429 125.923C367.167 122.448 364.138 119.844 360.663 120.105Z" stroke="black" stroke-width="3" stroke-miterlimit="10"/>
<path d="M352.464 111.126L285.355 121.971C282.007 122.512 279.732 125.665 280.273 129.012L291.119 196.122C291.66 199.469 294.812 201.744 298.159 201.203L365.269 190.358C368.616 189.817 370.892 186.665 370.351 183.317L359.505 116.208C358.964 112.86 355.812 110.585 352.464 111.126Z" stroke="black" stroke-width="3" stroke-miterlimit="10"/>
<path d="M344.227 102.252L279.716 118.684C276.5 119.503 274.556 122.775 275.376 125.991L291.807 190.501C292.627 193.718 295.898 195.661 299.115 194.842L363.625 178.41C366.842 177.591 368.785 174.319 367.966 171.103L351.534 106.593C350.715 103.376 347.443 101.433 344.227 102.252Z" stroke="black" stroke-width="3" stroke-miterlimit="10"/>
<path d="M336.009 93.3168L274.099 115.338C271.013 116.435 269.401 119.826 270.499 122.912L292.52 184.822C293.617 187.908 297.008 189.52 300.094 188.422L362.004 166.401C365.09 165.304 366.702 161.913 365.604 158.827L343.583 96.9166C342.486 93.831 339.095 92.2193 336.009 93.3168Z" stroke="black" stroke-width="3" stroke-miterlimit="10"/>
<path d="M327.829 84.2626L268.533 111.875C265.574 113.253 264.293 116.769 265.67 119.727L293.283 179.024C294.661 181.982 298.176 183.264 301.135 181.886L360.431 154.274C363.39 152.896 364.672 149.38 363.294 146.421L335.682 87.1253C334.304 84.1664 330.788 82.8848 327.829 84.2626Z" stroke="black" stroke-width="3" stroke-miterlimit="10"/>
<path d="M319.613 75.4168L262.909 108.619C260.082 110.274 259.133 113.906 260.788 116.732L293.99 173.437C295.644 176.263 299.277 177.213 302.103 175.558L358.808 142.356C361.634 140.701 362.584 137.069 360.929 134.243L327.727 77.5378C326.072 74.7116 322.44 73.762 319.613 75.4168Z" stroke="black" stroke-width="3" stroke-miterlimit="10"/>
<path d="M311.408 66.4847L257.307 105.274C254.609 107.209 253.99 110.963 255.925 113.661L294.714 167.762C296.648 170.459 300.403 171.078 303.101 169.144L357.202 130.354C359.899 128.42 360.518 124.666 358.584 121.968L319.794 67.8671C317.86 65.1695 314.105 64.5507 311.408 66.4847Z" stroke="black" stroke-width="3" stroke-miterlimit="10"/>
<path d="M303.206 57.4098L251.715 101.793C249.146 104.007 248.859 107.884 251.073 110.453L295.456 161.944C297.67 164.513 301.547 164.8 304.116 162.586L355.607 118.203C358.176 115.989 358.463 112.112 356.249 109.543L311.866 58.0518C309.652 55.4833 305.775 55.1958 303.206 57.4098Z" stroke="black" stroke-width="3" stroke-miterlimit="10"/>
<path d="M294.988 48.4386L246.101 98.413C243.664 100.904 243.708 104.899 246.199 107.336L296.173 156.223C298.664 158.66 302.659 158.616 305.096 156.125L353.984 106.151C356.421 103.66 356.377 99.6648 353.886 97.2278L303.911 48.3405C301.42 45.9036 297.425 45.9475 294.988 48.4386Z" stroke="black" stroke-width="3" stroke-miterlimit="10"/>
<path d="M286.795 39.6154L240.509 95.17C238.2 97.9408 238.575 102.058 241.346 104.367L296.9 150.653C299.671 152.962 303.788 152.587 306.097 149.816L352.383 94.2616C354.692 91.4908 354.317 87.3733 351.546 85.0648L295.992 38.7785C293.221 36.47 289.103 36.8447 286.795 39.6154Z" stroke="black" stroke-width="3" stroke-miterlimit="10"/>
<path d="M278.572 30.5875L234.884 91.7459C232.707 94.7928 233.413 99.0273 236.46 101.204L297.618 144.892C300.665 147.069 304.899 146.363 307.076 143.316L350.764 82.1579C352.941 79.1109 352.235 74.8765 349.188 72.6999L288.03 29.0116C284.983 26.835 280.749 27.5405 278.572 30.5875Z" stroke="black" stroke-width="3" stroke-miterlimit="10"/>
<path d="M270.416 21.7607L229.323 88.5048C227.276 91.8297 228.311 96.1847 231.636 98.2318L298.38 139.325C301.705 141.372 306.06 140.336 308.107 137.011L349.201 70.2674C351.248 66.9424 350.212 62.5874 346.887 60.5403L280.143 19.447C276.818 17.3998 272.463 18.4357 270.416 21.7607Z" stroke="black" stroke-width="3" stroke-miterlimit="10"/>
<path d="M262.136 12.6666L223.664 84.991C221.745 88.5992 223.114 93.0801 226.722 94.9994L299.046 133.471C302.654 135.39 307.135 134.021 309.055 130.413L347.526 58.0888C349.446 54.4807 348.077 49.9997 344.468 48.0804L272.144 9.60865C268.536 7.68933 264.055 9.05844 262.136 12.6666Z" stroke="black" stroke-width="3" stroke-miterlimit="10"/>
<path d="M119.222 21.3614L49.2098 63.896C45.717 66.018 44.6057 70.5697 46.7277 74.0625L89.2623 144.075C91.3843 147.567 95.936 148.679 99.4289 146.557L169.441 104.022C172.934 101.9 174.045 97.3485 171.923 93.8556L129.389 23.8435C127.267 20.3507 122.715 19.2394 119.222 21.3614Z" stroke="black" stroke-width="3" stroke-miterlimit="10"/>
<path d="M111.902 31.5294L47.6031 76.3518C44.3999 78.5847 43.6134 82.9915 45.8463 86.1947L90.6686 150.494C92.9015 153.697 97.3084 154.484 100.512 152.251L164.811 107.428C168.014 105.195 168.8 100.789 166.568 97.5854L121.745 33.2862C119.512 30.0831 115.105 29.2965 111.902 31.5294Z" stroke="black" stroke-width="3" stroke-miterlimit="10"/>
<path d="M104.574 41.6185L46.0073 88.7243C43.0895 91.0711 42.6266 95.3389 44.9734 98.2567L92.0792 156.824C94.426 159.741 98.6938 160.204 101.612 157.857L160.178 110.752C163.096 108.405 163.559 104.137 161.212 101.219L114.107 42.6524C111.76 39.7346 107.492 39.2717 104.574 41.6185Z" stroke="black" stroke-width="3" stroke-miterlimit="10"/>
<path d="M97.2463 51.6915L44.4224 101.071C41.7878 103.534 41.6486 107.666 44.1114 110.301L93.4913 163.125C95.9541 165.759 100.086 165.899 102.721 163.436L155.545 114.056C158.179 111.593 158.319 107.461 155.856 104.826L106.476 52.0026C104.013 49.368 99.8808 49.2287 97.2463 51.6915Z" stroke="black" stroke-width="3" stroke-miterlimit="10"/>
<path d="M89.9175 61.9307L42.8131 113.589C40.465 116.164 40.649 120.155 43.2241 122.503L94.8825 169.608C97.4576 171.956 101.449 171.772 103.797 169.197L150.901 117.538C153.249 114.963 153.065 110.972 150.49 108.624L98.8317 61.5197C96.2566 59.1716 92.2656 59.3556 89.9175 61.9307Z" stroke="black" stroke-width="3" stroke-miterlimit="10"/>
<path d="M82.5865 72.0576L41.2123 125.997C39.1484 128.688 39.6566 132.542 42.3472 134.606L96.2866 175.98C98.9773 178.044 102.832 177.536 104.895 174.845L146.27 120.906C148.333 118.215 147.825 114.361 145.135 112.297L91.1953 70.9227C88.5046 68.8588 84.6503 69.3669 82.5865 72.0576Z" stroke="black" stroke-width="3" stroke-miterlimit="10"/>
<path d="M75.2796 82.2599L39.6292 138.479C37.8516 141.282 38.683 144.996 41.4861 146.773L97.7055 182.424C100.509 184.201 104.222 183.37 106 180.567L141.65 124.347C143.428 121.544 142.596 117.831 139.793 116.053L83.5736 80.4029C80.7705 78.6253 77.0571 79.4568 75.2796 82.2599Z" stroke="black" stroke-width="3" stroke-miterlimit="10"/>
<path d="M67.9094 92.2476L37.9959 150.754C36.505 153.67 37.6603 157.242 40.5763 158.733L99.0826 188.647C101.999 190.138 105.571 188.982 107.062 186.066L136.976 127.56C138.466 124.644 137.311 121.072 134.395 119.581L75.8888 89.6672C72.9728 88.1763 69.4003 89.3316 67.9094 92.2476Z" stroke="black" stroke-width="3" stroke-miterlimit="10"/>
<path d="M60.605 102.47L36.4198 163.245C35.213 166.277 36.6931 169.714 39.7258 170.921L100.5 195.106C103.533 196.313 106.97 194.833 108.177 191.8L132.362 131.026C133.569 127.993 132.089 124.556 129.056 123.349L68.2813 99.164C65.2486 97.9571 61.8118 99.4373 60.605 102.47Z" stroke="black" stroke-width="3" stroke-miterlimit="10"/>
<path d="M53.2352 112.523L34.7816 175.588C33.8618 178.732 35.6643 182.025 38.8076 182.945L101.873 201.399C105.016 202.318 108.31 200.516 109.23 197.373L127.683 134.307C128.603 131.164 126.801 127.87 123.657 126.95L60.5919 108.497C57.4486 107.577 54.1549 109.38 53.2352 112.523Z" stroke="black" stroke-width="3" stroke-miterlimit="10"/>
<path d="M45.9043 122.688L33.1793 188.031C32.5449 191.289 34.6717 194.444 37.9297 195.079L103.272 207.804C106.53 208.438 109.686 206.312 110.32 203.053L123.045 137.711C123.68 134.453 121.553 131.298 118.295 130.663L52.9523 117.938C49.6943 117.304 46.5388 119.43 45.9043 122.688Z" stroke="black" stroke-width="3" stroke-miterlimit="10"/>
<path d="M38.5994 132.892L31.5997 200.51C31.2506 203.883 33.7019 206.901 37.0749 207.25L104.694 214.25C108.067 214.599 111.084 212.147 111.433 208.774L118.433 141.156C118.782 137.783 116.331 134.765 112.958 134.416L45.339 127.416C41.966 127.067 38.9485 129.519 38.5994 132.892Z" stroke="black" stroke-width="3" stroke-miterlimit="10"/>
<path d="M31.2572 143.025L29.9883 212.924C29.9251 216.408 32.6984 219.284 36.1827 219.347L106.081 220.616C109.566 220.679 112.441 217.906 112.505 214.422L113.774 144.523C113.837 141.039 111.063 138.163 107.579 138.1L37.6807 136.831C34.1964 136.767 31.3205 139.541 31.2572 143.025Z" stroke="black" stroke-width="3" stroke-miterlimit="10"/>
<path d="M102.287 141.731L30.1155 146.196C26.5159 146.418 23.7784 149.517 24.0011 153.117L28.4659 225.289C28.6886 228.888 31.7871 231.626 35.3867 231.403L107.559 226.938C111.158 226.715 113.896 223.617 113.673 220.017L109.208 147.845C108.986 144.246 105.887 141.508 102.287 141.731Z" stroke="black" stroke-width="3" stroke-miterlimit="10"/>
<path d="M96.862 145.496L22.3956 155.684C18.6857 156.191 16.0897 159.61 16.5972 163.32L26.7846 237.787C27.2921 241.496 30.711 244.093 34.421 243.585L108.887 233.398C112.597 232.89 115.193 229.471 114.686 225.761L104.498 151.295C103.991 147.585 100.572 144.989 96.862 145.496Z" stroke="black" stroke-width="3" stroke-miterlimit="10"/>
<path d="M91.533 149.144L14.7871 165.065C10.9639 165.858 8.50747 169.6 9.30061 173.424L25.2219 250.17C26.015 253.993 29.7574 256.449 33.5806 255.656L110.327 239.735C114.15 238.942 116.606 235.199 115.813 231.376L99.8918 154.63C99.0986 150.807 95.3563 148.351 91.533 149.144Z" stroke="black" stroke-width="3" stroke-miterlimit="10"/>
<path d="M86.146 152.858L7.13701 174.502C3.19533 175.582 0.875342 179.652 1.95514 183.594L23.5992 262.603C24.679 266.545 28.7497 268.865 32.6914 267.785L111.7 246.141C115.642 245.061 117.962 240.99 116.882 237.049L95.2382 158.04C94.1584 154.098 90.0877 151.778 86.146 152.858Z" stroke="black" stroke-width="3" stroke-miterlimit="10"/>
<path d="M287.085 199.063L206.075 211.242C202.034 211.849 199.25 215.618 199.858 219.66L212.037 300.669C212.645 304.711 216.413 307.495 220.455 306.887L301.465 294.708C305.506 294.1 308.29 290.331 307.682 286.29L295.503 205.28C294.895 201.239 291.126 198.455 287.085 199.063Z" stroke="black" stroke-width="3" stroke-miterlimit="10"/>
<path d="M288.262 193.45L211.638 209.947C207.821 210.768 205.393 214.529 206.215 218.346L222.711 294.971C223.533 298.788 227.294 301.216 231.111 300.394L307.735 283.897C311.553 283.076 313.981 279.315 313.159 275.498L296.662 198.873C295.84 195.056 292.08 192.628 288.262 193.45Z" stroke="black" stroke-width="3" stroke-miterlimit="10"/>
<path d="M289.477 187.752L217.258 208.57C213.66 209.607 211.584 213.364 212.621 216.962L233.439 289.182C234.476 292.78 238.233 294.856 241.831 293.819L314.051 273.001C317.649 271.964 319.725 268.206 318.688 264.608L297.87 192.389C296.833 188.791 293.075 186.715 289.477 187.752Z" stroke="black" stroke-width="3" stroke-miterlimit="10"/>
<path d="M290.684 182.033L222.883 207.167C219.501 208.421 217.776 212.178 219.03 215.56L244.164 283.361C245.417 286.742 249.175 288.468 252.556 287.214L320.358 262.08C323.739 260.826 325.464 257.069 324.211 253.687L299.076 185.886C297.823 182.504 294.065 180.779 290.684 182.033Z" stroke="black" stroke-width="3" stroke-miterlimit="10"/>
<path d="M291.816 176.514L228.41 205.96C225.249 207.427 223.877 211.18 225.345 214.34L254.79 277.747C256.258 280.907 260.01 282.28 263.171 280.812L326.577 251.366C329.738 249.898 331.11 246.146 329.642 242.985L300.197 179.579C298.729 176.418 294.977 175.046 291.816 176.514Z" stroke="black" stroke-width="3" stroke-miterlimit="10"/>
<path d="M293.016 170.845L234.013 204.609C231.07 206.293 230.049 210.044 231.734 212.987L265.497 271.99C267.182 274.933 270.933 275.954 273.876 274.269L332.879 240.506C335.822 238.821 336.842 235.07 335.158 232.127L301.394 173.124C299.71 170.181 295.959 169.161 293.016 170.845Z" stroke="black" stroke-width="3" stroke-miterlimit="10"/>
<path d="M294.177 165.282L239.573 203.361C236.851 205.259 236.183 209.005 238.081 211.728L276.16 266.332C278.058 269.055 281.804 269.723 284.527 267.824L339.131 229.746C341.854 227.847 342.522 224.101 340.623 221.379L302.545 166.774C300.646 164.052 296.9 163.384 294.177 165.282Z" stroke="black" stroke-width="3" stroke-miterlimit="10"/>
<path d="M295.374 159.463L245.178 201.867C242.676 203.981 242.361 207.722 244.475 210.224L286.879 260.42C288.992 262.922 292.734 263.237 295.235 261.124L345.432 218.719C347.934 216.606 348.249 212.864 346.135 210.363L303.731 160.166C301.617 157.664 297.876 157.349 295.374 159.463Z" stroke="black" stroke-width="3" stroke-miterlimit="10"/>
<path d="M296.547 153.926L250.758 200.636C248.473 202.967 248.51 206.709 250.841 208.994L297.551 254.783C299.882 257.068 303.624 257.031 305.908 254.7L351.698 207.99C353.983 205.659 353.946 201.918 351.615 199.633L304.905 153.843C302.574 151.558 298.832 151.595 296.547 153.926Z" stroke="black" stroke-width="3" stroke-miterlimit="10"/>
<path d="M297.755 148.382L256.358 199.412C254.295 201.955 254.684 205.69 257.228 207.753L308.258 249.15C310.801 251.214 314.536 250.824 316.599 248.281L357.996 197.251C360.059 194.707 359.67 190.973 357.127 188.91L306.097 147.513C303.553 145.449 299.819 145.838 297.755 148.382Z" stroke="black" stroke-width="3" stroke-miterlimit="10"/>
<path d="M298.892 142.561L261.908 197.912C260.064 200.672 260.806 204.404 263.566 206.248L318.917 243.232C321.677 245.076 325.409 244.334 327.253 241.574L364.238 186.223C366.082 183.463 365.339 179.731 362.579 177.887L307.228 140.903C304.469 139.059 300.736 139.801 298.892 142.561Z" stroke="black" stroke-width="3" stroke-miterlimit="10"/>
<path d="M300.102 137.001L267.519 196.664C265.894 199.64 266.989 203.37 269.965 204.995L329.627 237.578C332.603 239.204 336.334 238.109 337.959 235.133L370.542 175.47C372.167 172.494 371.072 168.764 368.096 167.138L308.434 134.555C305.458 132.93 301.727 134.025 300.102 137.001Z" stroke="black" stroke-width="3" stroke-miterlimit="10"/>
<path d="M301.262 131.336L273.083 195.316C271.679 198.505 273.125 202.229 276.315 203.634L340.294 231.812C343.483 233.217 347.208 231.77 348.612 228.581L376.791 164.601C378.195 161.412 376.748 157.688 373.559 156.283L309.58 128.105C306.39 126.7 302.666 128.147 301.262 131.336Z" stroke="black" stroke-width="3" stroke-miterlimit="10"/>
<path d="M302.504 125.811L278.723 194.099C277.537 197.505 279.337 201.227 282.742 202.413L351.03 226.194C354.436 227.38 358.159 225.58 359.345 222.175L383.125 153.887C384.311 150.481 382.511 146.758 379.106 145.572L310.818 121.792C307.412 120.606 303.69 122.406 302.504 125.811Z" stroke="black" stroke-width="3" stroke-miterlimit="10"/>
<path d="M303.651 120.094L284.274 192.713C283.309 196.331 285.459 200.047 289.077 201.012L361.696 220.389C365.314 221.354 369.03 219.204 369.995 215.586L389.372 142.967C390.337 139.349 388.187 135.633 384.569 134.668L311.95 115.291C308.332 114.326 304.616 116.476 303.651 120.094Z" stroke="black" stroke-width="3" stroke-miterlimit="10"/>
<path d="M304.782 114.398L289.813 191.335C289.067 195.168 291.57 198.879 295.403 199.625L372.34 214.594C376.173 215.34 379.884 212.837 380.63 209.005L395.599 132.067C396.345 128.234 393.842 124.523 390.009 123.777L313.072 108.808C309.239 108.062 305.528 110.565 304.782 114.398Z" stroke="black" stroke-width="3" stroke-miterlimit="10"/>
<path d="M14.3896 201.917L14.2752 283.837C14.2695 287.924 17.578 291.242 21.6649 291.248L103.585 291.362C107.672 291.368 110.989 288.059 110.995 283.972L111.11 202.052C111.115 197.966 107.807 194.648 103.72 194.642L21.8 194.528C17.7131 194.522 14.3953 197.831 14.3896 201.917Z" stroke="black" stroke-width="3" stroke-miterlimit="10"/>
<path d="M104.134 201.167L25.9016 205.979C22.0044 206.219 19.0393 209.573 19.279 213.47L24.0913 291.702C24.3311 295.6 27.6848 298.565 31.5821 298.325L109.814 293.513C113.712 293.273 116.677 289.919 116.437 286.022L111.625 207.79C111.385 203.892 108.031 200.927 104.134 201.167Z" stroke="black" stroke-width="3" stroke-miterlimit="10"/>
<path d="M104.535 207.624L30.0096 217.37C26.2967 217.855 23.6805 221.259 24.166 224.972L33.9113 299.497C34.3968 303.21 37.8002 305.826 41.5131 305.341L116.039 295.596C119.752 295.11 122.368 291.707 121.882 287.994L112.137 213.468C111.651 209.755 108.248 207.139 104.535 207.624Z" stroke="black" stroke-width="3" stroke-miterlimit="10"/>
<path d="M104.813 214.217L34.0054 228.881C30.4739 229.612 28.204 233.068 28.9353 236.599L43.5988 307.407C44.3302 310.938 47.7858 313.208 51.3173 312.477L122.125 297.813C125.656 297.082 127.926 293.626 127.195 290.095L112.532 219.287C111.8 215.756 108.345 213.486 104.813 214.217Z" stroke="black" stroke-width="3" stroke-miterlimit="10"/>
<path d="M105.216 220.648L38.1095 240.246C34.7643 241.222 32.8444 244.726 33.8214 248.071L53.4194 315.178C54.3963 318.523 57.9001 320.443 61.2453 319.466L128.352 299.868C131.697 298.891 133.617 295.388 132.64 292.042L113.042 224.936C112.065 221.59 108.562 219.671 105.216 220.648Z" stroke="black" stroke-width="3" stroke-miterlimit="10"/>
<path d="M105.588 227.125L42.1876 251.653C39.025 252.876 37.453 256.432 38.6766 259.594L63.2045 322.995C64.428 326.158 67.9837 327.73 71.1463 326.506L134.547 301.978C137.71 300.755 139.282 297.199 138.058 294.036L113.53 230.636C112.307 227.473 108.751 225.901 105.588 227.125Z" stroke="black" stroke-width="3" stroke-miterlimit="10"/>
<path d="M105.917 233.685L46.2176 263.139C43.241 264.607 42.0184 268.211 43.487 271.187L72.9405 330.887C74.4091 333.864 78.0127 335.086 80.9894 333.618L140.689 304.164C143.666 302.695 144.888 299.092 143.42 296.115L113.966 236.416C112.498 233.439 108.894 232.216 105.917 233.685Z" stroke="black" stroke-width="3" stroke-miterlimit="10"/>
<path d="M106.267 240.199L50.2702 274.581C47.4793 276.295 46.606 279.947 48.3196 282.738L82.7019 338.735C84.4155 341.525 88.0672 342.399 90.8582 340.685L146.855 306.303C149.646 304.589 150.519 300.938 148.806 298.147L114.424 242.15C112.71 239.359 109.058 238.485 106.267 240.199Z" stroke="black" stroke-width="3" stroke-miterlimit="10"/>
<path d="M106.654 246.602L54.3743 285.912C51.7655 287.873 51.2408 291.578 53.2024 294.187L92.5124 346.467C94.474 349.076 98.1791 349.6 100.788 347.639L153.068 308.329C155.677 306.367 156.201 302.662 154.24 300.053L114.93 247.773C112.968 245.165 109.263 244.64 106.654 246.602Z" stroke="black" stroke-width="3" stroke-miterlimit="10"/>
<path d="M107.001 253.199L58.4156 297.44C55.9941 299.645 55.8185 303.395 58.0235 305.817L102.264 354.403C104.469 356.824 108.22 357 110.641 354.795L159.227 310.554C161.649 308.349 161.824 304.599 159.619 302.177L115.378 253.591C113.173 251.17 109.423 250.994 107.001 253.199Z" stroke="black" stroke-width="3" stroke-miterlimit="10"/>
<path d="M107.354 259.718L62.4739 308.885C60.2362 311.336 60.4095 315.137 62.861 317.375L112.028 362.255C114.479 364.493 118.281 364.319 120.518 361.868L165.398 312.701C167.636 310.25 167.463 306.448 165.011 304.21L115.844 259.331C113.393 257.093 109.591 257.266 107.354 259.718Z" stroke="black" stroke-width="3" stroke-miterlimit="10"/>
<path d="M107.722 266.093L66.5549 320.191C64.5014 322.889 65.0243 326.742 67.7228 328.795L121.821 369.962C124.519 372.016 128.372 371.493 130.425 368.794L171.592 314.696C173.645 311.998 173.122 308.145 170.424 306.092L116.326 264.925C113.627 262.872 109.775 263.394 107.722 266.093Z" stroke="black" stroke-width="3" stroke-miterlimit="10"/>
<path d="M108.083 272.774L70.6127 331.795C68.7449 334.737 69.6157 338.636 72.5578 340.504L131.578 377.974C134.52 379.841 138.42 378.971 140.287 376.029L177.757 317.008C179.625 314.066 178.754 310.167 175.812 308.299L116.792 270.829C113.85 268.961 109.95 269.832 108.083 272.774Z" stroke="black" stroke-width="3" stroke-miterlimit="10"/>
<path d="M108.442 279.19L74.6838 343.136C73.0001 346.325 74.2207 350.276 77.41 351.959L141.356 385.717C144.546 387.401 148.496 386.18 150.18 382.991L183.938 319.045C185.621 315.855 184.401 311.905 181.211 310.221L117.265 276.463C114.076 274.78 110.125 276 108.442 279.19Z" stroke="black" stroke-width="3" stroke-miterlimit="10"/>
<path d="M108.781 285.613L78.727 354.502C77.2297 357.934 78.7982 361.93 82.2303 363.428L151.12 393.482C154.552 394.979 158.548 393.411 160.045 389.979L190.099 321.089C191.597 317.657 190.028 313.661 186.596 312.164L117.707 282.109C114.275 280.612 110.278 282.181 108.781 285.613Z" stroke="black" stroke-width="3" stroke-miterlimit="10"/>
<path d="M109.186 292.243L82.8289 366.058C81.5158 369.735 83.4324 373.781 87.1097 375.094L160.925 401.451C164.602 402.764 168.648 400.847 169.961 397.17L196.318 323.355C197.631 319.677 195.714 315.632 192.037 314.319L118.222 287.962C114.544 286.649 110.499 288.565 109.186 292.243Z" stroke="black" stroke-width="3" stroke-miterlimit="10"/>
<path d="M109.477 298.577L86.8416 377.308C85.7123 381.236 87.981 385.336 91.9088 386.465L170.64 409.1C174.567 410.229 178.667 407.961 179.796 404.033L202.431 325.302C203.561 321.374 201.292 317.275 197.364 316.145L118.633 293.51C114.706 292.381 110.606 294.65 109.477 298.577Z" stroke="black" stroke-width="3" stroke-miterlimit="10"/>
</svg>
